<mxfile host="app.diagrams.net" modified="2024-03-28T14:39:33.925Z" agent="Mozilla/5.0 (Windows NT 10.0; Win64; x64) AppleWebKit/537.36 (KHTML, like Gecko) Chrome/123.0.0.0 Safari/537.36" etag="nEvT_97aE5kU6iMS0oTt" version="24.2.0" type="github">
  <diagram name="Page-1" id="44LEgpog10mTBOyXUpHi">
    <mxGraphModel dx="657" dy="365" grid="1" gridSize="10" guides="1" tooltips="1" connect="1" arrows="1" fold="1" page="1" pageScale="1" pageWidth="850" pageHeight="1100" math="0" shadow="0">
      <root>
        <mxCell id="0" />
        <mxCell id="1" parent="0" />
        <mxCell id="au5pq5mF-Zh_nji7KG91-8" style="edgeStyle=orthogonalEdgeStyle;rounded=0;orthogonalLoop=1;jettySize=auto;html=1;" edge="1" parent="1" source="au5pq5mF-Zh_nji7KG91-4" target="au5pq5mF-Zh_nji7KG91-7">
          <mxGeometry relative="1" as="geometry" />
        </mxCell>
        <mxCell id="au5pq5mF-Zh_nji7KG91-4" value="START" style="strokeWidth=2;html=1;shape=mxgraph.flowchart.terminator;whiteSpace=wrap;" vertex="1" parent="1">
          <mxGeometry x="310" y="110" width="140" height="60" as="geometry" />
        </mxCell>
        <mxCell id="au5pq5mF-Zh_nji7KG91-10" style="edgeStyle=orthogonalEdgeStyle;rounded=0;orthogonalLoop=1;jettySize=auto;html=1;entryX=1;entryY=0.5;entryDx=0;entryDy=0;" edge="1" parent="1" source="au5pq5mF-Zh_nji7KG91-6" target="au5pq5mF-Zh_nji7KG91-7">
          <mxGeometry relative="1" as="geometry">
            <Array as="points">
              <mxPoint x="510" y="360" />
              <mxPoint x="510" y="240" />
            </Array>
          </mxGeometry>
        </mxCell>
        <mxCell id="au5pq5mF-Zh_nji7KG91-11" value="!Valid" style="edgeLabel;html=1;align=center;verticalAlign=middle;resizable=0;points=[];" vertex="1" connectable="0" parent="au5pq5mF-Zh_nji7KG91-10">
          <mxGeometry x="0.0553" y="-2" relative="1" as="geometry">
            <mxPoint as="offset" />
          </mxGeometry>
        </mxCell>
        <mxCell id="au5pq5mF-Zh_nji7KG91-6" value="Cek Validasi" style="rhombus;whiteSpace=wrap;html=1;" vertex="1" parent="1">
          <mxGeometry x="330" y="310" width="100" height="100" as="geometry" />
        </mxCell>
        <mxCell id="au5pq5mF-Zh_nji7KG91-9" style="edgeStyle=orthogonalEdgeStyle;rounded=0;orthogonalLoop=1;jettySize=auto;html=1;entryX=0.5;entryY=0;entryDx=0;entryDy=0;" edge="1" parent="1" source="au5pq5mF-Zh_nji7KG91-7" target="au5pq5mF-Zh_nji7KG91-6">
          <mxGeometry relative="1" as="geometry" />
        </mxCell>
        <mxCell id="au5pq5mF-Zh_nji7KG91-7" value="input&lt;br&gt;user &amp;amp; Pass" style="shape=parallelogram;perimeter=parallelogramPerimeter;whiteSpace=wrap;html=1;fixedSize=1;" vertex="1" parent="1">
          <mxGeometry x="300" y="210" width="160" height="60" as="geometry" />
        </mxCell>
      </root>
    </mxGraphModel>
  </diagram>
</mxfile>
